# xmcd
# Track frame offsets:
# 150
# 752
# 19151
# 36389
# 54022
# 72619
# 89259
# 103804
# 122039
# 141834
# 160269
# 183928
# 209096
# 218102
#
# Disc length: 2915 seconds
# Revision: 0
# Processed by: cddbd v1.5.1PL2 Copyright (c) Steve Scherf et al.
# Submitted via: VisiTrax 2.9.10.220 - For more info visit www.synapsa.com
#
DISCID=c20b610e
DTITLE=Road Hammers, The - The Road Hammers
DYEAR=2005
DGENRE=Country
TTITLE0=The Road Hammers - Ignition
TTITLE1=The Road Hammers - I'm A Road Hammer
TTITLE2=The Road Hammers - Overdrive
TTITLE3=The Road Hammers - Keep On Truckin'
TTITLE4=The Road Hammers - Girl On The Billboard
TTITLE5=The Road Hammers - Heart With Four Wheel Drive
TTITLE6=The Road Hammers - East Bound And Down
TTITLE7=The Road Hammers - Call It A Day
TTITLE8=The Road Hammers - Nashville Bound
TTITLE9=The Road Hammers - Willin'
TTITLE10=The Road Hammers - The Hammer Goin' Down
TTITLE11=The Road Hammers - I'm A Road Hammer (reprise)
TTITLE12=The Road Hammers - Flat Tires
TTITLE13=The Road Hammers - Absolutely Nothing
EXTD=
EXTT0=
EXTT1=
EXTT2=
EXTT3=
EXTT4=
EXTT5=
EXTT6=
EXTT7=
EXTT8=
EXTT9=
EXTT10=
EXTT11=
EXTT12=
EXTT13=
PLAYORDER=
